<?xml version="1.0" encoding="UTF-8"?>
<svg width="46px" height="16px" viewBox="0 0 46 16" version="1.1" xmlns="http://www.w3.org/2000/svg" xmlns:xlink="http://www.w3.org/1999/xlink">
    <!-- Generator: Sketch 52.4 (67378) - http://www.bohemiancoding.com/sketch -->
    <title>Combined Shape</title>
    <desc>Created with Sketch.</desc>
    <defs>
        <path d="M1,21 L1,17 L11,17 L11,21 L1,21 Z M1.61178688,20.3755874 L10.3882131,20.3755874 L10.3882131,17.6248711 L1.61178688,17.6248711 L1.61178688,20.3755874 Z M1,31 L1,27 L11,27 L11,31 L1,31 Z M1.61178688,30.3746705 L10.3882131,30.3746705 L10.3882131,27.6244126 L1.61178688,27.6244126 L1.61178688,30.3746705 Z M19,16 L25,31 L13,31 L19,16 Z M19,17.6375856 L13.9130531,30.3549049 L24.0869469,30.3549049 L19,17.6375856 Z M30,28.334461 C32.9675761,28.334461 35.3819061,25.7172606 35.3819061,22.5004886 C35.3819061,19.2832281 32.9675761,16.665539 30,16.665539 C27.0324239,16.665539 24.6180939,19.2832281 24.6180939,22.5004886 C24.6180939,25.7172606 27.0324239,28.334461 30,28.334461 Z M30,16 C33.30814,16 36,18.9157645 36,22.5004886 C36,26.0842355 33.30814,29 30,29 C26.6914065,29 24,26.0842355 24,22.5004886 C24,18.9157645 26.6914065,16 30,16 Z M35,17 L47,17 L47,32 L35,17 Z M36.2992369,17.6393058 L46.3999119,30.2650094 L46.3999119,17.6393058 L36.2992369,17.6393058 Z" id="path-1"></path>
    </defs>
    <g id="Symbols" stroke="none" stroke-width="1" fill="none" fill-rule="evenodd">
        <g id="Data-/-Container-/-_Logo-/-Logo" transform="translate(-1.000000, -16.000000)">
            <mask id="mask-2" fill="white">
                <use xlink:href="#path-1"></use>
            </mask>
            <use id="Combined-Shape" fill="#000000" xlink:href="#path-1"></use>
        </g>
    </g>
</svg>